<?xml version="1.0" encoding="UTF-8" standalone="no"?>
<svg
   xmlns:dc="http://purl.org/dc/elements/1.1/"
   xmlns:cc="http://creativecommons.org/ns#"
   xmlns:rdf="http://www.w3.org/1999/02/22-rdf-syntax-ns#"
   xmlns:svg="http://www.w3.org/2000/svg"
   xmlns="http://www.w3.org/2000/svg"
   xmlns:sodipodi="http://sodipodi.sourceforge.net/DTD/sodipodi-0.dtd"
   xmlns:inkscape="http://www.inkscape.org/namespaces/inkscape"
   id="Capa_1"
   enable-background="new 0 0 512 512"
   height="340.61017"
   viewBox="0 0 339.35492 340.61017"
   width="339.35492"
   version="1.1"
   sodipodi:docname="blood-transfusion.svg"
   inkscape:version="0.92.4 (5da689c313, 2019-01-14)">
  <metadata
     id="metadata3806">
    <rdf:RDF>
      <cc:Work
         rdf:about="">
        <dc:format>image/svg+xml</dc:format>
        <dc:type
           rdf:resource="http://purl.org/dc/dcmitype/StillImage" />
      </cc:Work>
    </rdf:RDF>
  </metadata>
  <defs
     id="defs3804">
    <clipPath
       clipPathUnits="userSpaceOnUse"
       id="clipPath3823">
      <rect
         id="rect3825"
         width="490.30508"
         height="455.59323"
         x="17.355932"
         y="56.40678" />
    </clipPath>
  </defs>
  <sodipodi:namedview
     pagecolor="#ffffff"
     bordercolor="#666666"
     borderopacity="1"
     objecttolerance="10"
     gridtolerance="10"
     guidetolerance="10"
     inkscape:pageopacity="0"
     inkscape:pageshadow="2"
     inkscape:window-width="1850"
     inkscape:window-height="1017"
     id="namedview3802"
     showgrid="false"
     inkscape:zoom="0.4609375"
     inkscape:cx="233.67797"
     inkscape:cy="255.99998"
     inkscape:window-x="70"
     inkscape:window-y="27"
     inkscape:window-maximized="1"
     inkscape:current-layer="Capa_1" />
  <path
     d="M 210.76175,7.4486923 V 180.61969 l -76.54356,58.6881 H 84.084798 L 7.5412372,180.61969 V 7.4486923 Z"
     id="path3785"
     inkscape:connector-curvature="0"
     style="fill:#faf7f5;stroke-width:0.75086433" />
  <path
     d="m 7.5412372,65.985019 c 0,0 14.1021148,-32.646282 51.1197868,-11.463239 8.965023,5.130159 28.344495,17.959299 46.838626,1.9939 23.67119,-20.434677 45.58,-4.236756 53.88968,2.457419 C 175.73496,72.138669 210.761,45.629601 210.761,45.629601 V 180.61969 l -76.54357,58.6881 H 84.084798 L 7.5412372,180.61969 Z"
     id="path3787"
     inkscape:connector-curvature="0"
     style="fill:#ff5a58;stroke-width:0.75086433" />
  <path
     d="m 93.842405,276.68874 c 0,31.17422 25.536895,56.44524 57.037395,56.44524 h 48.72771 c 39.6375,0 71.7692,-31.79848 71.7692,-71.02381 V 138.33062 c 0,-8.2582 6.76449,-14.95238 15.10962,-14.95238 8.34438,0 15.10962,6.69418 15.10962,14.95238 v 86.02478 c 0,8.2582 6.7645,14.95239 15.10963,14.95239 8.34438,0 15.10963,-6.69419 15.10963,-14.95239 v -86.02478 c 0,-24.77385 -20.29423,-44.857141 -45.32812,-44.857141 -25.0339,0 -45.32812,20.083291 -45.32812,44.857141 v 120.04145 c 0,24.77386 -20.29423,44.85714 -45.32811,44.85714 h -44.95031 c -14.81174,0 -26.8189,-11.88265 -26.8189,-26.54047 z"
     id="path3789"
     inkscape:connector-curvature="0"
     style="fill:#ff5a58;stroke-width:0.75086433" />
  <path
     d="M 157.15034,177.62922 H 58.130875 c -8.330051,0 -15.082475,-6.69418 -15.082475,-14.95238 v -54.25098 c 0,-8.2582 6.752424,-14.952381 15.082475,-14.952381 h 99.020215 c 8.33006,0 15.08248,6.694181 15.08248,14.952381 v 54.25098 c -7.5e-4,8.2582 -6.75318,14.95238 -15.08323,14.95238 z"
     id="path3791"
     inkscape:connector-curvature="0"
     style="fill:#faf7f5;stroke-width:0.75086433" />
  <path
     d="m 134.21819,239.30779 -6.18004,37.38095 H 90.264842 l -6.180044,-37.38095 z"
     id="path3793"
     inkscape:connector-curvature="0"
     style="fill:#faf7f5;stroke-width:0.75086433" />
  <path
     d="m 242.89572,311.28107 c -1.65154,0 -3.22011,0.52333 -4.53983,1.51767 -1.60628,1.20366 -2.64697,2.9531 -2.92599,4.93429 -0.27149,1.97446 0.24131,3.94743 1.45545,5.53985 1.44038,1.88476 3.63488,2.96058 6.02545,2.96058 1.65154,0 3.22011,-0.52334 4.53983,-1.51019 3.31814,-2.48958 3.97423,-7.18462 1.47054,-10.47415 -1.44038,-1.884 -3.63488,-2.96805 -6.02545,-2.96805 z"
     id="path3795"
     inkscape:connector-curvature="0"
     style="stroke-width:0.75086433" />
  <path
     d="m 475.49,214.18 c -3.54,-8.33 -8.59,-15.82 -15.03,-22.25 -6.44,-6.42 -13.94,-11.47 -22.28,-14.99 -8.65,-3.649 -17.82,-5.5 -27.29,-5.51 -9.46,0.01 -18.64,1.86 -27.28,5.51 -8.35,3.521 -15.84,8.57 -22.28,14.99 -6.44,6.43 -11.5,13.92 -15.03,22.25 -3.66,8.63 -5.51,17.8 -5.51,27.25 V 402 c 0.02,24.99 -18.67,46.29 -43.47,49.56 -2.18,0.29 -4.42,0.44 -6.64,0.44 h -59.61 c -11.249,-0.024 -20.823,-7.346 -24.228,-17.449 1.972,-1.427 3.384,-3.536 3.811,-6.003 l 8.115,-46.977 97.829,-75.661 c 2.449,-1.894 3.882,-4.814 3.882,-7.91 V 66.37 c 0,-5.522 -4.477,-10 -10,-10 H 230.82 V 50 C 230.82,22.43 208.358,0 180.749,0 H 170.73 c -27.609,0 -50.071,22.43 -50.071,50 v 6.37 H 41 c -5.523,0 -10,4.478 -10,10 V 298 c 0,3.096 1.434,6.017 3.882,7.91 l 97.829,75.661 8.115,46.977 c 0.512,2.965 2.444,5.414 5.067,6.779 0.863,8.434 2.962,16.632 6.276,24.464 4.32,10.18 10.49,19.319 18.36,27.17 7.86,7.85 17.02,14.02 27.22,18.319 10.551,4.46 21.761,6.72 33.321,6.72 h 64.62 c 6.13,0 12.28,-0.53 18.27,-1.58 5.43,-0.95 9.08,-6.15 8.13,-11.58 -0.84,-4.79 -4.98,-8.271 -9.84,-8.271 -0.58,0 -1.16,0.051 -1.74,0.15 -4.86,0.85 -9.85,1.28 -14.82,1.28 h -64.62 c -17.52,0 -34.01,-6.82 -46.41,-19.19 -9.994,-9.986 -16.364,-22.623 -18.456,-36.31 h 20.424 c 0.593,2.632 1.409,5.212 2.472,7.72 2.29,5.42 5.58,10.28 9.76,14.46 4.19,4.17 9.06,7.45 14.48,9.74 5.62,2.38 11.58,3.58 17.73,3.58 h 59.61 c 3,0 6.04,-0.19 9.01,-0.58 0.09,0 0.17,-0.01 0.25,-0.021 16.71,-2.21 32.09,-10.399 43.3,-23.08 5.54,-6.26 9.86,-13.359 12.86,-21.119 3.11,-8.03 4.68,-16.511 4.69,-25.2 V 241.43 c 0,-13.34 5.21,-25.89 14.66,-35.34 9.48,-9.45 22.07,-14.65 35.44,-14.66 13.38,0.01 25.96,5.21 35.44,14.66 9.46,9.45 14.67,22 14.67,35.34 V 356.5 c -0.01,5.5 -4.51,9.99 -10.04,10 -5.52,-0.01 -10.02,-4.5 -10.03,-10 V 241.43 c -0.01,-8.01 -3.13,-15.55 -8.81,-21.21 -5.67,-5.66 -13.21,-8.78 -21.23,-8.78 -8.02,0 -15.56,3.12 -21.23,8.78 -5.67,5.66 -8.8,13.2 -8.8,21.21 V 407 c 0,12.96 -2.85,25.399 -8.46,36.97 -2.4,4.97 -0.32,10.96 4.64,13.36 1.37,0.67 2.84,1.01 4.35,1.01 3.81,0 7.35,-2.22 9.01,-5.64 3.38,-6.98 5.99,-14.351 7.74,-21.9 1.81,-7.771 2.72,-15.771 2.72,-23.8 V 241.43 c 0.01,-5.5 4.51,-9.99 10.03,-10 5.53,0.01 10.03,4.5 10.04,10 V 356.5 c 0,8.02 3.13,15.55 8.8,21.22 3.225,3.219 7.056,5.614 11.234,7.083 V 427 c 0,5.246 4.477,9.5 10,9.5 5.523,0 10,-4.254 10,-9.5 v -42.198 c 4.18,-1.469 8.011,-3.864 11.235,-7.083 5.67,-5.67 8.8,-13.2 8.8,-21.22 V 241.43 C 481,231.979 479.14,222.81 475.49,214.18 Z M 159.136,417.218 153.83,386.5 h 43.82 l -5.271,30.51 c -0.431,0.143 -32.895,0.221 -33.243,0.208 z M 140.659,50 c 0,-16.542 13.49,-30 30.071,-30 h 10.018 c 16.582,0 30.071,13.458 30.071,30 v 6.37 H 140.658 V 50 Z m 159.82,26.37 v 35.312 c -13.986,10.085 -40.952,24.671 -51.815,15.844 -37.563,-30.521 -66.594,-18.514 -84.333,-3.066 -16.387,14.267 -32.898,6.569 -48.408,-2.539 -0.753,-0.442 -1.466,-0.86 -2.137,-1.248 -18.669,-10.774 -35.827,-13.595 -51,-8.379 -4.484,1.542 -8.395,3.676 -11.786,6.087 V 76.37 Z M 51,148.962 c 0.087,-0.182 0.191,-0.349 0.268,-0.538 0.052,-0.129 5.54,-12.927 18.021,-17.218 9.458,-3.249 21.065,-0.968 34.5,6.788 0.63,0.363 1.299,0.757 2.007,1.172 12.885,7.568 43.061,25.29 71.669,0.375 17.872,-15.563 36.49,-14.447 58.587,3.506 6.308,5.125 13.705,7.124 21.414,7.124 15.128,-0.001 31.441,-7.702 43.014,-14.595 V 293.092 L 205.563,366.5 H 145.916 L 51,293.092 Z"
     id="path3797"
     clip-path="url(#clipPath3823)"
     inkscape:connector-curvature="0"
     transform="matrix(0.75412375,0,0,0.74761904,-23.377836,-42.170783)" />
  <path
     d="M 179.77405,162.67684 V 108.4266 c 0,-12.367111 -10.14899,-22.428561 -22.62371,-22.428561 H 58.13012 c -12.474714,0 -22.623712,10.06145 -22.623712,22.428561 v 54.25024 c 0,12.36711 10.148998,22.42856 22.623712,22.42856 h 99.02022 c 12.47472,0 22.62371,-10.06145 22.62371,-22.42856 z m -129.185167,0 V 108.4266 c 0,-4.12236 3.383,-7.47618 7.541237,-7.47618 h 99.02022 c 4.15824,0 7.54124,3.35382 7.54124,7.47618 v 54.25024 c 0,4.12236 -3.383,7.47619 -7.54124,7.47619 H 58.13012 c -4.158237,0 -7.541237,-3.35383 -7.541237,-7.47619 z"
     id="path3799"
     inkscape:connector-curvature="0"
     style="stroke-width:0.75086433" />
</svg>
